<svg id="Layer_1" data-name="Layer 1" xmlns="http://www.w3.org/2000/svg" xmlns:xlink="http://www.w3.org/1999/xlink" viewBox="0 0 363.5 365"><defs><style>.cls-1{fill:url(#linear-gradient);}.cls-2{fill:#fff;}</style><linearGradient id="linear-gradient" x1="0.41" x2="0.59" gradientTransform="translate(-703.02 1082.57) rotate(-45.5) scale(2513.04 2513.04)" gradientUnits="userSpaceOnUse"><stop offset="0" stop-color="#070135"/><stop offset="1" stop-color="#612d50"/></linearGradient></defs><title>Bootstrap-01 [Converted]</title><rect class="cls-1" width="363.5" height="365" rx="58.72"/><path class="cls-2" d="M252.75,224.63q13.92,0,21.11-6t7.19-17.87q0-11.67-7.19-17.72-7.19-6.21-21.11-6.21h-32.6v47.85h32.6m2,98.89q17.76,0,26.63-7.42,9-7.41,9-22.41,0-14.69-8.88-22-8.86-7.43-26.78-7.42H220.15v59.21h34.58m54.79-81.32q19,5.46,29.38,20.14t10.4,36q0,32.72-22.34,48.77T259,363.2H161.24V137.1h88.44q47.6,0,68.86,14.24Q340,165.58,340,196.92q0,16.5-7.81,28.17-7.8,11.5-22.64,17.11" transform="translate(-68.25 -67.5)"/></svg>