<svg id="Layer_1" data-name="Layer 1" xmlns="http://www.w3.org/2000/svg" viewBox="0 0 365 127.18"><title>Django-01 [Converted]</title><path d="M87.52,248.62c-.07,12.07,8.78,19.26,22.9,16v-32c-14.3-4.35-22.84,4.45-22.9,16m23.33-62.21h19.44v92c-18.64,3.05-36.48,5-49.25-2.16-16.44-9.19-17.76-38.4-4.76-51.41,6.6-6.59,19.88-11.24,34.14-8.21V187.71c0-.62-.08-1.23.43-1.3" transform="translate(-67.5 -186.41)"/><rect x="74.89" width="19.44" height="20.31"/><path d="M395.13,265.47c21.19,8.24,23.54-37.93,2.16-33.7-13.28,2.64-12.85,29.55-2.16,33.7m.86-49.68c16.19-1.73,28.4,5.41,33.27,16.42,8.31,18.77-.46,40.32-13.83,46.66-6.93,3.28-14.18,3.59-20.74,3-20.25-1.77-33-22.41-25.92-45.36a31.56,31.56,0,0,1,3-6.92c4.4-7.48,11.84-12.5,24.19-13.82" transform="translate(-67.5 -186.41)"/><path d="M188.61,258.13c-5.37,9,8.14,11.2,16.85,8.64V253.38c-6.69.93-14.32.5-16.85,4.75m34.13,21.17c-16.06.92-40.46,6.39-49.25-4.32-5.16-6.3-4.6-18.3,0-24.2,6-7.61,18.95-9.27,30.68-10.36a11.15,11.15,0,0,0-.87-8.65c-10.72-2.73-21.38,1.51-28.94,4.76V221.41c11.42-5.25,37.88-10.78,45.79,1.29,4.16,6.34,2.59,17.4,2.59,27.22Z" transform="translate(-67.5 -186.41)"/><path d="M291,280.16H271.56V255.1c0-8.25,1.34-18.71-3-22-3.41-2.6-11.51-1.3-16.42,0v47.09H232.68V220.11c19.88-5.16,55.75-10.7,58.33,14.26,1.27,12.3-.94,30.76,0,45.79" transform="translate(-67.5 -186.41)"/><path d="M320,259.42c3.27,5.3,12.13,7.28,19.44,3.89q-.6-15.17-.43-31.1c-16.8-4.44-26.81,14.59-19,27.21m48.82-41c-1.73,5.18-4.26,9.56-6.48,14.26-2,.45-3.74-.8-4.75,0-.44,21.06,4.48,49.61-3.89,64.8-5,9.15-14.32,15-28.51,16a58.09,58.09,0,0,1-25.93-3.89V291.4c8.87,5.17,31.28,9.4,37.59-1.3,1.86-3.15,1.74-6.4,2.59-11.23-4.06.21-8,2.09-13,2.16-20.37.27-33-16-28.08-38.45a30.63,30.63,0,0,1,13.83-19.88c14.18-8.65,36-8,56.59-4.32" transform="translate(-67.5 -186.41)"/><path d="M161.83,217c0,14.31,0,24.6,0,42-.83,17.1-.64,30.71-6.89,38.89a36.76,36.76,0,0,1-6,5.61c-1.84,1.39-5.36,4.2-7.35,4.32s-7.17-2.79-9.5-3.89c-3.07-1.44-5.9-3.36-9.08-4.32,7.4-4.58,14.42-8,17.29-17.28,2.49-8.05,2.16-19.73,2.16-31.1s.05-24.3.05-34.22Z" transform="translate(-67.5 -186.41)"/></svg>