<svg id="Layer_1" data-name="Layer 1" xmlns="http://www.w3.org/2000/svg" viewBox="0 0 365 365"><defs><style>.cls-1{fill:#f26522;}.cls-2{fill:#fff;}</style></defs><title>ES6-01 [Converted]</title><rect class="cls-1" width="365" height="365"/><path class="cls-2" d="M218,295.57H273.8V280.38H235.21V256.84h35.58V241.65H235.21v-22H273.8V204.43H218ZM348.38,270.8c0-18.2-1.24-22.17-25.73-28.05-15.74-3.83-16-4.11-16-14.51,0-7.93,2.05-10.4,13.68-10.4a119.77,119.77,0,0,1,24.36,2.74l1.92-14.5a123.88,123.88,0,0,0-26.55-3c-23.12,0-30.65,8.21-30.65,24.76,0,19.3,3,23.54,25,28.46,16.42,3.56,16.7,4.38,16.7,14.51,0,8.76-2.06,11.36-14.51,11.36a85.82,85.82,0,0,1-25.72-4.25l-3,13.55c6,2.87,18.07,5.47,28.47,5.47C343.31,296.93,348.38,288,348.38,270.8Zm31.74-33.94c0-14,6.71-16.69,22.85-16.69a78,78,0,0,1,12.87,1.23l1.09-14a79.89,79.89,0,0,0-15.73-1.64c-24.91,0-37.77,7.66-37.77,31.75V270.8c0,15.74,4.65,26.13,28.19,26.13,21.48,0,28.05-10.67,28.05-24.9v-6.57c0-15.73-6.71-22.58-23.26-22.58a50.92,50.92,0,0,0-16.29,2.47Zm13.69,20.39c6,0,9.16,2.05,9.16,8.62v6.71c0,7-2.73,10-11.35,10s-11.5-2.47-11.5-10V260.13A35.72,35.72,0,0,1,393.81,257.25Z" transform="translate(-67.5 -67.5)"/></svg>