<svg id="Layer_1" data-name="Layer 1" xmlns="http://www.w3.org/2000/svg" viewBox="0 0 233.93 365"><defs><style>.cls-1{fill:#6762a6;}.cls-2{fill:#fff;}</style></defs><title>Heroku-01 [Converted]</title><path class="cls-1" d="M158.7,431.46V399.68c0-2.24-1.65-3.21-3.58-3.21A34.13,34.13,0,0,0,142,399.38v32.08H133v-59H142v19.47a42.63,42.63,0,0,1,14.4-2.91c8.14,0,11.19,5,11.19,11.86v30.59Zm25.58-19.25c.3,10.67,2.39,12.76,8.95,12.76,5.15,0,11-1.72,15.45-3.44l1.49,6.72a41.93,41.93,0,0,1-17.53,4.25c-14.92,0-17.24-8.2-17.24-21.26,0-7.16.53-13.65,2.24-19.62,4.48-1.72,10.44-2.61,18-2.61,12.24,0,16,6.79,16,18.65v4.55Zm11.34-15.74a59.71,59.71,0,0,0-10.44.74,46,46,0,0,0-1,8.81h18.65C202.86,399.82,201.74,396.47,195.62,396.47Zm32.75,2.91v32.08h-9V395.35a52,52,0,0,1,20.74-5.75v7.47C236.5,397.36,231.87,397.81,228.37,399.38ZM263.8,432.5c-13.35,0-19.4-6.56-19.4-21.56,0-15.89,8-21.93,19.4-21.93,13.35,0,19.4,6.56,19.4,21.56C283.2,426.46,275.21,432.5,263.8,432.5Zm0-36c-6.86,0-10.67,3.95-10.67,14.47,0,11.49,3.21,14,10.67,14,6.86,0,10.67-3.88,10.67-14.4C274.47,399.08,271.26,396.47,263.8,396.47Zm62.59,35H315.87a58.39,58.39,0,0,0-11.19-19.1H300v19.1h-9v-59h9v33.86h4.18a54.17,54.17,0,0,0,10.51-16.26h10.07A70.13,70.13,0,0,1,312,408.11,126.46,126.46,0,0,1,326.39,431.46Zm16.78,1c-8.13,0-11.19-5-11.19-11.86V390.05h8.88v31.71c0,2.24,1.64,3.21,3.58,3.21A36.2,36.2,0,0,0,358,422.06v-32h9v36C356.37,431.83,348.24,432.5,343.17,432.5Z" transform="translate(-133.03 -67.5)"/><rect class="cls-1" width="233.83" height="289.91" rx="27.65"/><path class="cls-2" d="M279.57,317.52V202.39s7.49-27.55-92.24,11.27c-.18.49-.18-106.46-.18-106.46l32.58-.2v68.52S311,139.59,311,202.77V317.52Zm18.57-169H263.58c12.44-15.21,23.7-41.28,23.7-41.28H323S316.9,124.18,298.14,148.47ZM187.74,317.32V251.75l32.78,32.79Z" transform="translate(-133.03 -67.5)"/></svg>