<svg id="Layer_1" data-name="Layer 1" xmlns="http://www.w3.org/2000/svg" viewBox="0 0 365 365"><defs><style>.cls-1{fill:#f7df1e;}</style></defs><title>JavaScript-01 [Converted]</title><rect class="cls-1" width="365" height="365"/><path d="M163.47,372.52l27.93-16.9c5.39,9.55,10.29,17.63,22,17.63,11.27,0,18.38-4.4,18.38-21.55V235.07h34.3V352.18c0,35.53-20.82,51.7-51.21,51.7-27.44,0-43.36-14.21-51.45-31.36" transform="translate(-67.5 -67.5)"/><path d="M284.76,368.85l27.93-16.18c7.35,12,16.91,20.83,33.81,20.83,14.22,0,23.28-7.1,23.28-16.91,0-11.76-9.31-15.92-25-22.78l-8.58-3.68c-24.74-10.53-41.16-23.76-41.16-51.69,0-25.73,19.6-45.33,50.23-45.33,21.81,0,37.49,7.6,48.75,27.44l-26.7,17.15c-5.88-10.53-12.25-14.7-22.05-14.7-10,0-16.42,6.37-16.42,14.7,0,10.29,6.37,14.46,21.07,20.83l8.58,3.67c29.15,12.5,45.57,25.24,45.57,53.9,0,30.88-24.26,47.78-56.84,47.78-31.85,0-52.43-15.19-62.48-35" transform="translate(-67.5 -67.5)"/></svg>