<svg id="Layer_1" data-name="Layer 1" xmlns="http://www.w3.org/2000/svg" xmlns:xlink="http://www.w3.org/1999/xlink" viewBox="0 0 350 350"><defs><style>.cls-1{fill:url(#linear-gradient);}.cls-2{fill:url(#linear-gradient-2);}</style><linearGradient id="linear-gradient" x1="-565.75" y1="-17.45" x2="-318.89" y2="-264.34" gradientTransform="matrix(1, 0, 0, -1, 688.69, 112.5)" gradientUnits="userSpaceOnUse"><stop offset="0"/><stop offset="1" stop-color="#fff"/></linearGradient><linearGradient id="linear-gradient-2" x1="-307.72" y1="-253.16" x2="-554.57" y2="-6.27" xlink:href="#linear-gradient"/></defs><title>JSON-01 [Converted]</title><path id="path7508" class="cls-1" d="M249.7,335.53c77.44,105.56,153.22-29.46,153.1-110.66-.13-96-97.43-149.65-153.16-149.65C160.19,75.22,75,149.15,75,250.3,75,362.72,172.65,425,249.64,425c-17.42-2.51-75.48-14.95-76.26-148.68-.53-90.44,29.5-126.58,76.13-110.68,1.05.38,51.44,20.26,51.44,85.2C301,315.5,249.7,335.53,249.7,335.53Z" transform="translate(-75 -75)"/><path id="path7510" class="cls-2" d="M249.61,165.56c-51.16-17.63-113.84,24.54-113.84,109C135.77,412.48,238,425,250.36,425,339.81,425,425,351.07,425,249.92c0-112.43-97.65-174.7-174.64-174.7,21.32-3,114.93,23.07,114.93,151,0,83.44-69.89,128.86-115.36,109.45-1-.38-51.43-20.26-51.43-85.2C198.5,185.82,249.61,165.56,249.61,165.56Z" transform="translate(-75 -75)"/></svg>