<svg id="Layer_1" data-name="Layer 1" xmlns="http://www.w3.org/2000/svg" viewBox="0 0 365 186.4"><defs><style>.cls-1{fill:#eb7077;}.cls-2{fill:#f6a2ad;}</style></defs><title>Materialize-CSS-01 [Converted]</title><path class="cls-1" d="M157.59,162.44a12.41,12.41,0,0,1,5.5-5.46,17.2,17.2,0,0,1,3-.09H216a16.58,16.58,0,0,0-3.83,4.18,68,68,0,0,0-5.86,13.52c-4.49,14.1-7.62,28.59-10.66,43.08-1.36,6.56-2.68,13.17-3.92,19.73-3.78,21.5-7.7,43-12.59,64.22-2.34,9.82-4.72,19.65-8.33,29.12-1.67,3.92-3.3,8.1-6.52,11-.75.66-1.49,1.49-2.55,1.36h-44c-3-.09-5.94.18-8.94-.13a17.44,17.44,0,0,0,4.89-5.59c3.3-6.3,5.37-13.13,7.36-19.91,3.08-10.93,5.55-22,7.88-33,1.45-7.26,3.17-14.49,4.23-21.8,1.19-8.15,3-16.21,4.45-24.31,2.29-11.94,4.71-23.87,7.4-35.72,2.16-9.25,4.36-18.46,7.31-27.49A69.47,69.47,0,0,1,157.59,162.44Z" transform="translate(-67.5 -156.8)"/><path class="cls-1" d="M157.59,162.44l.06,0a12.33,12.33,0,0,1,5.47-5.43l0-.06,0,.06a8.42,8.42,0,0,1,1.5-.11l1.52,0H216v-.06l0,0a16.59,16.59,0,0,0-3.85,4.2l.06,0-.06,0a67.25,67.25,0,0,0-5.86,13.53h0c-4.49,14.1-7.62,28.6-10.66,43.09-1.37,6.56-2.69,13.17-3.92,19.73-3.79,21.5-7.71,42.94-12.6,64.22-2.33,9.82-4.71,19.64-8.32,29.1l.06,0-.06,0c-1.67,3.92-3.3,8.09-6.5,11-.7.62-1.39,1.36-2.29,1.36H117.68v0c-.48,0-1,0-1.42,0-1.33,0-2.66,0-4,0a34.87,34.87,0,0,1-3.53-.16V343l0,0a17.46,17.46,0,0,0,4.91-5.61c3.31-6.31,5.38-13.14,7.36-19.92,3.08-10.93,5.55-22,7.89-33,1.45-7.27,3.17-14.49,4.23-21.81,1.18-8.14,3-16.2,4.44-24.31,2.29-11.94,4.72-23.87,7.4-35.72,2.16-9.25,4.36-18.45,7.31-27.48a69.79,69.79,0,0,1,5.33-12.67l-.06,0-.06,0a70,70,0,0,0-5.33,12.7c-3,9-5.16,18.24-7.32,27.49-2.68,11.85-5.11,23.79-7.4,35.73-1.45,8.1-3.26,16.16-4.45,24.31-1.05,7.31-2.77,14.53-4.22,21.8-2.34,11.05-4.81,22.11-7.89,33-2,6.78-4,13.6-7.35,19.9a17.41,17.41,0,0,1-4.87,5.57l-.13.1.17,0a34.93,34.93,0,0,0,3.54.15c1.33,0,2.66,0,4,0l1.41,0h44v0H162c1,0,1.69-.79,2.38-1.39,3.23-2.93,4.86-7.12,6.53-11h0c3.62-9.48,6-19.3,8.33-29.12,4.89-21.28,8.81-42.73,12.6-64.23,1.23-6.56,2.55-13.16,3.92-19.73,3-14.49,6.17-29,10.66-43.07l-.07,0,.07,0a66.56,66.56,0,0,1,5.85-13.51h0a16.13,16.13,0,0,1,3.82-4.17l.13-.12h-50l-1.52,0a8.82,8.82,0,0,0-1.53.11h0a12.56,12.56,0,0,0-5.54,5.49Z" transform="translate(-67.5 -156.8)"/><path class="cls-2" d="M216,156.89c1.28,0,2.56,0,3.83,0a14.59,14.59,0,0,1,6.52,6.83,83.67,83.67,0,0,1,4.54,10.48c4.4,13.61,7.4,27.61,10.39,41.58q3.84,18.76,7.27,37.66c.18.66,0,1.58.84,1.76-3.17,16.56-6.3,33.16-10.26,49.59A217.93,217.93,0,0,1,231.41,331c-1.76,4.27-3.57,8.94-7.31,12-2.38.53-4.1-1.28-5.55-2.91-2.51-3.21-4.05-7-5.55-10.79-5-13.56-8-27.7-11.1-41.8-2.34-11-4.41-22-6.56-33-1-5.6-2.29-11.1-3-16.69l-.58-.36c1.24-6.56,2.56-13.17,3.92-19.73,3-14.49,6.17-29,10.66-43.08a68,68,0,0,1,5.86-13.52A16.58,16.58,0,0,1,216,156.89Z" transform="translate(-67.5 -156.8)"/><path class="cls-2" d="M216,156.89V157h3.83v-.06l0,.06a14.53,14.53,0,0,1,6.49,6.79h0a85,85,0,0,1,4.54,10.47l.06,0-.06,0c4.4,13.6,7.39,27.61,10.39,41.57q3.82,18.77,7.27,37.66h0c.08.32.07.72.15,1.06a.89.89,0,0,0,.74.75v-.06l-.07,0c-3.17,16.57-6.29,33.17-10.26,49.6a219.57,219.57,0,0,1-7.7,26.2c-1.76,4.27-3.57,8.92-7.3,11.95l0,.05,0-.07a3.34,3.34,0,0,1-.82.1c-1.91,0-3.39-1.55-4.66-3l0,0,0,0c-2.5-3.2-4-7-5.54-10.77-5-13.56-8-27.7-11.1-41.79-2.33-11-4.4-22-6.56-33h0c-1-5.6-2.29-11.1-3-16.69v0l0,0c-.13-.09-.44-.27-.57-.35l0,.05.07,0c1.23-6.57,2.55-13.17,3.92-19.74,3-14.49,6.17-29,10.66-43.07l-.07,0,.07,0a66.56,66.56,0,0,1,5.85-13.51h0a16.13,16.13,0,0,1,3.82-4.17l0-.05v0l0,0a16.59,16.59,0,0,0-3.85,4.2l.06,0-.06,0a67.25,67.25,0,0,0-5.86,13.53h0c-4.49,14.1-7.62,28.6-10.66,43.09-1.37,6.56-2.69,13.17-3.92,19.73v0l0,0c.13.09.44.27.57.35l0-.05h-.07c.75,5.6,2.07,11.11,3,16.7h0c2.16,11,4.23,22.07,6.56,33,3.09,14.09,6.13,28.23,11.1,41.8,1.5,3.79,3,7.59,5.56,10.81h0c1.28,1.43,2.77,3,4.76,3a4.17,4.17,0,0,0,.85-.09h0c3.76-3,5.57-7.73,7.33-12a218.47,218.47,0,0,0,7.71-26.21c4-16.43,7.09-33,10.26-49.6l0-.07h-.07a.74.74,0,0,1-.63-.65c-.07-.32-.06-.72-.15-1.06l-.07,0,.07,0q-3.44-18.88-7.27-37.66c-3-14-6-28-10.4-41.58h0a84.45,84.45,0,0,0-4.54-10.49l-.06,0,.06,0a14.6,14.6,0,0,0-6.54-6.86h0l-1.28,0-2.56,0h0l0,0Z" transform="translate(-67.5 -156.8)"/><path class="cls-1" d="M271.09,164.51c1.59-3,3.53-6.43,7-7.58,17.49-.09,35,0,52.46,0a23.46,23.46,0,0,0-4.45,5.33c-3.39,6.08-5.37,12.81-7.4,19.47-5.19,18.32-8.85,37-12.33,55.76-3.22,18.45-6.65,36.91-10.57,55.27-2,9.25-4.14,18.46-6.83,27.58-1.72,5.63-3.52,11.32-6.34,16.56-1.37,2.38-2.95,5-5.55,6.21-16.69.13-33.43,0-50.12,0a20.41,20.41,0,0,1-2.82-.13c3.74-3,5.55-7.71,7.31-12a217.93,217.93,0,0,0,7.71-26.21c4-16.43,7.09-33,10.26-49.59,3.83-21.36,7.84-42.73,12.95-63.82C264.71,182.26,267,173,271.09,164.51Z" transform="translate(-67.5 -156.8)"/><path class="cls-1" d="M271.09,164.51l.06,0c1.59-3,3.52-6.41,6.92-7.54l0-.07V157q13.13-.08,26.23-.06h26.23v-.06l-.05,0a23.43,23.43,0,0,0-4.46,5.35l.06,0-.06,0c-3.39,6.09-5.38,12.84-7.4,19.49h0c-5.2,18.32-8.86,37.05-12.34,55.76-3.21,18.46-6.65,36.91-10.57,55.28-2,9.25-4.14,18.45-6.82,27.57-1.72,5.63-3.52,11.31-6.34,16.55-1.36,2.37-2.94,5-5.52,6.18l0,.06V343c-5.93.05-11.86.06-17.79.06l-24.57,0h-7.76a18.83,18.83,0,0,1-2.81-.14V343l0,0c3.76-3,5.57-7.73,7.33-12a218.47,218.47,0,0,0,7.71-26.21c4-16.43,7.09-33,10.26-49.6,3.84-21.36,7.84-42.72,12.95-63.82,2.38-9.12,4.67-18.36,8.76-26.85l-.06,0,.06,0-.06,0-.06,0c-4.1,8.51-6.39,17.76-8.77,26.88-5.11,21.1-9.11,42.46-12.95,63.83-3.17,16.56-6.29,33.16-10.26,49.59a219.57,219.57,0,0,1-7.7,26.2c-1.76,4.27-3.57,8.92-7.3,11.95l-.11.09.15,0a20.62,20.62,0,0,0,2.83.13h7.76l24.57,0q8.89,0,17.79-.07h0c2.62-1.25,4.21-3.86,5.58-6.24A90.46,90.46,0,0,0,289,320.32c2.68-9.12,4.8-18.33,6.82-27.58,3.92-18.37,7.36-36.83,10.58-55.28,3.48-18.72,7.13-37.44,12.33-55.76h0c2-6.65,4-13.38,7.39-19.45h0a23.53,23.53,0,0,1,4.44-5.31l.11-.12H304.28q-13.11,0-26.23.06h0c-3.47,1.16-5.41,4.57-7,7.61h0Z" transform="translate(-67.5 -156.8)"/><path class="cls-2" d="M330.51,156.89c1.41,0,2.86,0,4.27,0a15.89,15.89,0,0,1,5.38,5.28c2.38,3.79,3.87,8.06,5.41,12.25a351.86,351.86,0,0,1,8.9,34.31c3.35,15.55,6.26,31.18,9.12,46.82.7,3.74,1.41,7.53,1.85,11.32l.66.66c-1.59,2.2-2.2,4.85-3.08,7.36a209.13,209.13,0,0,0-6.13,27.39,147.06,147.06,0,0,1-5.06,21.36c-1.67,5.16-3.7,10.27-7.05,14.58a15.7,15.7,0,0,1-6.12,4.72c-3.66.39-5.81-3.13-7.58-5.73-3.65-6.39-5.63-13.52-7.75-20.48-7-25.77-11.49-52.15-16.38-78.36a1.17,1.17,0,0,0-.62-.92c3.48-18.72,7.14-37.44,12.33-55.76,2-6.66,4-13.39,7.4-19.47A23.46,23.46,0,0,1,330.51,156.89Z" transform="translate(-67.5 -156.8)"/><path class="cls-2" d="M330.51,156.89V157h4.27v-.06l0,.06a15.65,15.65,0,0,1,5.35,5.26l.06,0-.06,0c2.37,3.78,3.87,8,5.41,12.23l.06,0-.06,0a351.67,351.67,0,0,1,8.9,34.3c3.34,15.55,6.25,31.19,9.11,46.82.71,3.75,1.41,7.53,1.85,11.32v0l.66.66.05-.05-.05,0c-1.6,2.22-2.22,4.87-3.1,7.37h0a208.88,208.88,0,0,0-6.12,27.4,148.25,148.25,0,0,1-5.06,21.35c-1.68,5.15-3.7,10.26-7,14.56a15.63,15.63,0,0,1-6.1,4.69l0,.07v-.07l-.55,0c-3.27,0-5.29-3.26-7-5.73l-.06,0,.06,0c-3.65-6.38-5.63-13.51-7.74-20.47l-.07,0,.07,0c-7-25.76-11.5-52.14-16.39-78.35h0a1.21,1.21,0,0,0-.65-1l0,.06h.07c3.48-18.72,7.13-37.44,12.33-55.76h0c2-6.65,4-13.38,7.39-19.45h0a23.53,23.53,0,0,1,4.44-5.31l-.05-.05v0l-.05,0a23.43,23.43,0,0,0-4.46,5.35l.06,0-.06,0c-3.39,6.09-5.38,12.84-7.4,19.49h0c-5.2,18.32-8.86,37.05-12.34,55.76v0l.05,0a1.07,1.07,0,0,1,.58.87h0c4.89,26.21,9.43,52.6,16.39,78.37h0c2.11,7,4.09,14.1,7.76,20.49h0c1.67,2.45,3.7,5.78,7.07,5.78l.57,0h0a15.79,15.79,0,0,0,6.14-4.74c3.36-4.32,5.39-9.44,7.06-14.6A147.22,147.22,0,0,0,357,302.29a208.59,208.59,0,0,1,6.12-27.38l-.06,0,.06,0c.88-2.52,1.5-5.15,3.07-7.34l0-.05,0,0-.66-.66-.05.05h.07c-.45-3.79-1.15-7.58-1.86-11.32-2.86-15.64-5.77-31.28-9.11-46.82a354.18,354.18,0,0,0-8.9-34.32h0c-1.54-4.18-3-8.46-5.43-12.25h0a15.77,15.77,0,0,0-5.4-5.31h0l-1.43,0-2.85,0h0l0,0Z" transform="translate(-67.5 -156.8)"/><path class="cls-2" d="M67.52,257.09c1.14-.09,2.29-.26,3.48-.26h48c2,.26,4.14.09,6.08,1a17.28,17.28,0,0,1,7.18,5.5,9.68,9.68,0,0,0,.84-.66c-1.06,7.31-2.78,14.54-4.23,21.8-2.33,11.06-4.8,22.11-7.88,33-2,6.78-4.06,13.61-7.36,19.91a17.44,17.44,0,0,1-4.89,5.59c-.75.13-1.32-.4-1.94-.79-2.07-1.32-3.26-3.61-4.53-5.68-6-13.75-6.7-28.94-10.44-43.3a100.88,100.88,0,0,0-7.67-20.92,38.51,38.51,0,0,0-8.1-10.79A22,22,0,0,0,67.52,257.09Z" transform="translate(-67.5 -156.8)"/><path class="cls-2" d="M67.52,257.09v.07c1.15-.09,2.29-.27,3.48-.27h48v0c2,.27,4.14.09,6.06,1h0a17.23,17.23,0,0,1,7.15,5.48l0,.05.05,0a10.27,10.27,0,0,0,.84-.67l0-.05H133c-1.05,7.31-2.77,14.53-4.22,21.8-2.34,11.05-4.81,22.11-7.89,33-2,6.78-4,13.6-7.35,19.9a17.41,17.41,0,0,1-4.87,5.57l0,.05v-.07l-.22,0a3.28,3.28,0,0,1-1.67-.8c-2-1.31-3.24-3.59-4.52-5.66l0,0,.06,0c-6-13.73-6.69-28.92-10.44-43.29a100.6,100.6,0,0,0-7.67-20.93,38.62,38.62,0,0,0-8.12-10.81h0A22,22,0,0,0,67.53,257v.06l0,.07A21.94,21.94,0,0,1,76,261.55l0-.05,0,.05a38.91,38.91,0,0,1,8.09,10.77,100.73,100.73,0,0,1,7.65,20.91c3.75,14.34,4.41,29.54,10.45,43.3h0c1.28,2.07,2.47,4.37,4.56,5.7a3.48,3.48,0,0,0,1.74.83l.24,0h0a17.46,17.46,0,0,0,4.91-5.61c3.31-6.31,5.38-13.14,7.36-19.92,3.08-10.93,5.55-22,7.89-33,1.45-7.27,3.17-14.49,4.23-21.81l0-.17-.13.11a9,9,0,0,1-.83.65l0,.06.06,0a17.44,17.44,0,0,0-7.21-5.53l0,.07,0-.06c-2-.89-4.08-.72-6.1-1H71c-1.2,0-2.35.18-3.49.26v.14Z" transform="translate(-67.5 -156.8)"/><path class="cls-1" d="M370,261.67a14.33,14.33,0,0,1,11.1-4.93h36.11c5,.09,10.09-.18,15.11.13-1.5,1-3.3,1.41-4.89,2.25a29.17,29.17,0,0,0-13.21,11.93c-4.8,8.37-6.48,18-7.89,27.4-1.41,9.25-1.36,18.81-4.36,27.79-2,6.3-5.11,12.64-10.44,16.78-16.56.18-33.12.05-49.64.09a15.57,15.57,0,0,1-3.21-.17,15.7,15.7,0,0,0,6.12-4.72c3.35-4.31,5.38-9.42,7.05-14.58a147.06,147.06,0,0,0,5.06-21.36A209.13,209.13,0,0,1,363,274.89c.88-2.51,1.49-5.16,3.08-7.36C367.42,265.59,368.3,263.35,370,261.67Z" transform="translate(-67.5 -156.8)"/><path class="cls-1" d="M370,261.67l0,.05a14.35,14.35,0,0,1,10.53-4.93l.51,0h38.5c2.25,0,4.5,0,6.75,0,2,0,4,0,6,.16v-.07l0-.05c-1.48,1-3.28,1.4-4.88,2.24l0,.06,0-.06a29.25,29.25,0,0,0-13.24,12c-4.81,8.38-6.48,18-7.89,27.42-1.41,9.26-1.37,18.81-4.36,27.78-2,6.29-5.1,12.62-10.42,16.75l0,0V343q-10.75.1-21.51.09H340.94a10.76,10.76,0,0,1-2.27-.18v.07l0,.06a15.79,15.79,0,0,0,6.14-4.74c3.36-4.32,5.39-9.44,7.06-14.6A147.22,147.22,0,0,0,357,302.29a208.59,208.59,0,0,1,6.12-27.38l-.06,0,.06,0c.88-2.52,1.5-5.15,3.07-7.34,1.33-1.95,2.21-4.19,3.87-5.85h0l0-.05-.05-.05c-1.69,1.69-2.57,3.94-3.89,5.87-1.59,2.22-2.21,4.87-3.09,7.37h0a208.88,208.88,0,0,0-6.12,27.4,148.25,148.25,0,0,1-5.06,21.35c-1.68,5.15-3.7,10.26-7,14.56a15.63,15.63,0,0,1-6.1,4.69l-.19.09.21,0a11,11,0,0,0,2.29.18h8.88l20.18,0c7.17,0,14.34,0,21.51-.1h0c5.35-4.16,8.44-10.51,10.47-16.82,3-9,3-18.56,4.36-27.8,1.41-9.43,3.08-19,7.88-27.37a29.06,29.06,0,0,1,13.18-11.91h0c1.58-.84,3.39-1.23,4.9-2.25l.16-.11-.2,0c-2-.12-4-.15-6-.15-2.25,0-4.5,0-6.75,0-.79,0-1.59,0-2.38,0H381.08v0h-.52a14.52,14.52,0,0,0-10.63,5l.05,0-.05-.05Z" transform="translate(-67.5 -156.8)"/></svg>