<svg id="Layer_1" data-name="Layer 1" xmlns="http://www.w3.org/2000/svg" viewBox="0 0 365 104"><defs><style>.cls-1{fill:#8e714e;}.cls-2{fill:#442d22;}.cls-3{fill:#fff;}.cls-4{fill:#a6a385;}.cls-5{fill:#499d4a;}.cls-6{fill:#58aa50;}</style></defs><title>MongoDB-01 [Converted]</title><path class="cls-1" d="M407.74,241c-.33.07-.66.79-.66,1.19-.07,2.63-.13,9.61-.13,14.35a.48.48,0,0,0,.39.4c1,.06,3.36.13,5.4.13a14,14,0,0,0,5.4-.79c2.37-1.19,3.49-3.75,3.49-6.59,0-6.39-4.48-8.82-11.13-8.82A10.21,10.21,0,0,0,407.74,241Zm17,29.44c0-6.52-4.81-10.14-13.5-10.14-.4,0-3.17-.07-3.82.06-.2.07-.46.2-.46.4,0,4.67-.07,12.12.13,15a5,5,0,0,0,2.17,3.56c1.19.66,3.89.79,5.73.79C420.18,280.13,424.73,277.23,424.73,270.45ZM394.3,237.39c.66,0,2.63.19,7.71.19,4.8,0,8.62-.13,13.3-.13,5.73,0,13.63,2,13.63,10.61,0,4.21-3,7.57-6.85,9.22-.19.06-.19.2,0,.26,5.54,1.38,10.41,4.81,10.41,11.26s-3.95,10.34-9.68,12.85a31.59,31.59,0,0,1-12.25,2c-3.36,0-12.38-.4-17.39-.26-.53-.2.46-2.57.92-3a11.87,11.87,0,0,0,3.36-.53c1.78-.46,2-1,2.24-3.68.13-2.31.13-10.48.13-16.27,0-8,.07-13.37,0-16-.06-2-.79-2.7-2.24-3.09-1.12-.2-3-.46-4.48-.66C392.78,239.89,393.9,237.65,394.3,237.39Zm-38,41c1.58,1.25,4.67,1.78,7.44,1.78a14.62,14.62,0,0,0,10.54-3.75c3.49-3.16,5.92-8,5.92-15.81,0-7.44-2.83-13.5-8.62-17.06-3.3-2-7.51-2.9-12.39-2.9a9.71,9.71,0,0,0-3.68.47,1.91,1.91,0,0,0-.66,1c-.13,1.32-.13,11.46-.13,17.39,0,6.12,0,14.68.13,15.67A4.06,4.06,0,0,0,356.3,278.35Zm-14.95-41c1.25,0,6.06.19,8.36.19,4.15,0,7.11-.19,15-.19,6.59,0,12.12,1.78,16.07,5.13,4.81,4.15,7.31,9.88,7.31,16.87,0,9.94-4.54,15.67-9.09,19s-10.47,5.34-18.9,5.34c-4.48,0-12.18-.13-18.57-.2h-.07c-.33-.59.53-2.9,1.06-3a10.51,10.51,0,0,0,3-.6c1.38-.52,1.64-1.25,1.84-3.68.2-4.55.13-10,.13-16.21,0-4.41.07-13-.06-15.8-.2-2.31-1.19-2.9-3.17-3.3-1-.19-2.3-.46-4.15-.65C339.83,239.82,341,237.78,341.35,237.39Z" transform="translate(-67.5 -198)"/><path class="cls-2" d="M261.65,280.92a13.32,13.32,0,0,1-4.28-1.12,2,2,0,0,1-.53-1.05c-.13-2.31-.13-8.89-.13-13.31,0-3.55-.59-6.65-2.1-8.82a9,9,0,0,0-7.64-4c-2.9,0-6.79,2-10,4.74-.06.07-.59.53-.52-.2s.13-2.17.2-3.16a1.72,1.72,0,0,0-.47-1.38A44.15,44.15,0,0,1,226,255.3c-1.59.33-2,1.85-.33,2.37h.06a14.46,14.46,0,0,1,3.89,1.72,2,2,0,0,1,.59,1.84c.07,4.94.07,12.51-.13,16.66-.07,1.65-.53,2.24-1.71,2.51l.13-.07a27.42,27.42,0,0,1-2.77.53,3.89,3.89,0,0,0,0,3c.73,0,4.55-.2,7.71-.2,4.34,0,6.58.2,7.7.2a4.25,4.25,0,0,0,.33-3,12.66,12.66,0,0,1-3-.46c-1.18-.27-1.51-.86-1.58-2.24-.13-3.49-.13-10.87-.13-15.88a3.17,3.17,0,0,1,.79-2.43,10,10,0,0,1,6.13-2.24,6.84,6.84,0,0,1,4.54,1.51,6.5,6.5,0,0,1,2.11,4.15c.33,2.83.2,8.43.2,13.31,0,2.63-.2,3.29-1.19,3.62a12.43,12.43,0,0,1-3,.59c-.46.46-.33,2.5,0,3,1.91,0,4.15-.19,7.44-.19,4.09,0,6.72.19,7.78.19a4.59,4.59,0,0,0,.19-2.83Zm18.25-25.16c-3.49,0-5.67,2.7-5.67,6.92s1.91,9.22,7.31,9.22a5.12,5.12,0,0,0,3.43-1.32,8.71,8.71,0,0,0,2.11-6.06C287.08,259.06,284.37,255.76,279.9,255.76Zm-.46,29.11a5.7,5.7,0,0,0-2.84.73c-2.76,1.78-4,3.49-4,5.53a5.81,5.81,0,0,0,2.3,4.74c1.91,1.65,4.55,2.44,7.9,2.44,6.72,0,9.69-3.62,9.69-7.18,0-2.5-1.26-4.15-3.82-5.07C286.81,285.27,283.45,284.87,279.44,284.87ZM279.9,302c-4,0-6.92-.86-9.42-2.77a8.66,8.66,0,0,1-3.49-6.52,5,5,0,0,1,1.32-3.29,34.37,34.37,0,0,1,6.05-4.87c.14-.07.2-.14.2-.27a.45.45,0,0,0-.26-.33c-3.1-1.18-4-3.09-4.28-4.15v-.13c-.07-.39-.2-.79.39-1.18s1.12-.73,1.85-1.19a26.66,26.66,0,0,0,3-2,.48.48,0,0,0,.13-.39.44.44,0,0,0-.27-.33c-4.61-1.52-6.91-4.94-6.91-10.08a10,10,0,0,1,4.21-8.3,19.39,19.39,0,0,1,9.49-3.22h.2a20,20,0,0,1,7.24,1.58,12.22,12.22,0,0,0,4.28.66,5.67,5.67,0,0,0,4.61-1.72,3.58,3.58,0,0,1,.27,1.32,5,5,0,0,1-.86,3,3.76,3.76,0,0,1-2.9,1.25h-.33a15,15,0,0,1-1.71-.26l-.26.13c-.07.13,0,.26.06.46l.07.13a24.64,24.64,0,0,1,.39,2.84c0,5.4-2.17,7.77-4.48,9.54a15,15,0,0,1-7.7,3,8.92,8.92,0,0,0-.92.06c-.33,0-.79.07-.86.07H279c-.52.13-1.84.79-1.84,1.91s.59,2.17,3.42,2.37c.6.07,1.19.07,1.85.13,3.75.27,8.43.6,10.6,1.32a7.38,7.38,0,0,1,4.94,7c0,4.87-3.49,9.42-9.28,12.25A21.26,21.26,0,0,1,279.9,302Zm37.54-45.91a6.1,6.1,0,0,0-3.56,1c-2.57,1.58-3.88,4.74-3.88,9.35,0,8.63,4.34,14.69,10.53,14.69a6.72,6.72,0,0,0,4.55-1.58c1.91-1.58,2.9-4.74,2.9-9.16C328,261.82,323.69,256.09,317.44,256.09Zm1.18,28.19c-11.19,0-15.21-8.23-15.21-15.94a14.24,14.24,0,0,1,6.52-12.51,19.82,19.82,0,0,1,10.08-3c8.56,0,14.55,6.12,14.55,14.95,0,6-2.37,10.73-6.91,13.63a18.28,18.28,0,0,1-9,2.83ZM201.26,256.09a6.1,6.1,0,0,0-3.56,1c-2.57,1.58-3.89,4.74-3.89,9.35,0,8.63,4.35,14.69,10.54,14.69a6.72,6.72,0,0,0,4.55-1.58c1.91-1.58,2.9-4.74,2.9-9.16C211.8,261.82,207.58,256.09,201.26,256.09Zm1.18,28.19c-11.19,0-15.21-8.23-15.21-15.94a14.24,14.24,0,0,1,6.52-12.51,19.79,19.79,0,0,1,10.08-3c8.56,0,14.55,6.12,14.55,14.95,0,6-2.37,10.73-6.91,13.63A17.87,17.87,0,0,1,202.44,284.28Zm-75.28-.66a2.87,2.87,0,0,1-.2-1.51,2.3,2.3,0,0,1,.2-1,26.51,26.51,0,0,0,2.9-.59c1.32-.33,1.84-1.06,1.91-2.7.2-3.95.2-11.46.13-16.67V261a2,2,0,0,0-.72-1.84,14.84,14.84,0,0,0-4-1.71c-.59-.2-1-.53-.92-.93s.4-.85,1.25-1A48.8,48.8,0,0,0,137.83,253a1.62,1.62,0,0,1,.33,1.05l-.07.72c-.06.73-.13,1.59-.13,2.44a.51.51,0,0,0,.53.46.94.94,0,0,0,.4-.13c4.21-3.29,8-4.48,10-4.48,3.22,0,5.73,1.52,7.64,4.68a.48.48,0,0,0,.46.26.44.44,0,0,0,.39-.2c3.89-3,7.77-4.74,10.34-4.74,6.13,0,9.75,4.55,9.75,12.25,0,2.18,0,5-.07,7.58,0,2.3-.06,4.41-.06,5.92a2.09,2.09,0,0,0,1.18,1.59,14.51,14.51,0,0,0,3.82.92h.07a5.34,5.34,0,0,1-.39,2.5,15.22,15.22,0,0,1-1.65-.07c-1.25-.06-3-.13-5-.13-4.08,0-6.19.07-8.23.2a6.36,6.36,0,0,1,0-2.5,19.75,19.75,0,0,0,2.5-.6c1.32-.39,1.65-1,1.72-2.7,0-1.25.26-11.92-.14-14.49a6.49,6.49,0,0,0-6.71-5.73,11.67,11.67,0,0,0-6.72,2.57,1.21,1.21,0,0,0-.27.66v.07a29.63,29.63,0,0,1,.27,5.4v4.28c0,3-.07,5.73,0,7.84a1.92,1.92,0,0,0,1.58,2c.39.06.66.13,1,.2l2.1.46a3.42,3.42,0,0,1-.06,1.84,1.25,1.25,0,0,1-.27.66c-2.23-.07-4.54-.13-7.9-.13-1,0-2.7.06-4.15.06-1.18,0-2.3.07-3,.07a3.37,3.37,0,0,1-.2-1.32,2.06,2.06,0,0,1,.26-1.18,4.25,4.25,0,0,1,.93-.13c.79-.14,1.44-.27,2.1-.4,1.12-.33,1.52-.92,1.58-2.37.2-3.29.4-12.71-.06-15.08-.79-3.82-3-5.73-6.46-5.73a12,12,0,0,0-6.71,2.57,2.12,2.12,0,0,0-.6,1.51v3.89c0,4.74,0,10.67.07,13.23a2,2,0,0,0,1.84,2.05c.33.06.86.19,1.52.26l1.18.2a5.46,5.46,0,0,1-.19,2.5c-.66,0-1.45-.07-2.38-.07-1.38-.06-3.16-.13-5.13-.13-2.31,0-4,.07-5.27.13A16.19,16.19,0,0,0,127.16,283.62Z" transform="translate(-67.5 -198)"/><path class="cls-3" d="M92.52,299.43l-2.7-.92s.33-13.77-4.61-14.76c-3.3-3.82.52-162,12.38-.52,0,0-4.08,2-4.81,5.53S92.52,299.43,92.52,299.43Z" transform="translate(-67.5 -198)"/><path class="cls-4" d="M92.52,299.43l-2.7-.92s.33-13.77-4.61-14.76c-3.3-3.82.52-162,12.38-.52,0,0-4.08,2-4.81,5.53S92.52,299.43,92.52,299.43Z" transform="translate(-67.5 -198)"/><path class="cls-3" d="M94,286.13s23.64-15.55,18.11-47.89c-5.34-23.51-17.92-31.22-19.3-34.18a33.57,33.57,0,0,1-3-5.79l1,65.4c0,.06-2,20,3.16,22.46" transform="translate(-67.5 -198)"/><path class="cls-5" d="M94,286.13s23.64-15.55,18.11-47.89c-5.34-23.51-17.92-31.22-19.3-34.18a33.57,33.57,0,0,1-3-5.79l1,65.4c0,.06-2,20,3.16,22.46" transform="translate(-67.5 -198)"/><path class="cls-3" d="M88.43,287s-22.19-15.15-20.87-41.82,16.92-39.78,20-42.15c2-2.11,2-2.9,2.18-5,1.38,3,1.12,44.33,1.31,49.2C91.6,266,90,283.43,88.43,287Z" transform="translate(-67.5 -198)"/><path class="cls-6" d="M88.43,287s-22.19-15.15-20.87-41.82,16.92-39.78,20-42.15c2-2.11,2-2.9,2.18-5,1.38,3,1.12,44.33,1.31,49.2C91.6,266,90,283.43,88.43,287Z" transform="translate(-67.5 -198)"/></svg>