<svg id="Layer_1" data-name="Layer 1" xmlns="http://www.w3.org/2000/svg" xmlns:xlink="http://www.w3.org/1999/xlink" viewBox="0 0 365 223.54"><defs><style>.cls-1{fill:none;}.cls-2{fill:#689f63;}.cls-3{fill:#404137;}.cls-4{clip-path:url(#clip-path);}.cls-5{fill:url(#linear-gradient);}.cls-6{clip-path:url(#clip-path-2);}.cls-7{fill:url(#linear-gradient-2);}.cls-8{clip-path:url(#clip-path-3);}.cls-9{fill:url(#linear-gradient-3);}</style><clipPath id="clip-path" transform="translate(-67.5 -138.23)"><path class="cls-1" d="M200.11,189.87l-34.76,20.06a4.2,4.2,0,0,0-2.1,3.64v40.16a4.2,4.2,0,0,0,2.1,3.63l34.77,20.08a4.2,4.2,0,0,0,4.2,0l34.75-20.08a4.2,4.2,0,0,0,2.1-3.63V213.57a4.2,4.2,0,0,0-2.1-3.64l-34.76-20.06a4.24,4.24,0,0,0-4.21,0"/></clipPath><linearGradient id="linear-gradient" x1="0.38" y1="-0.05" x2="1" y2="-0.05" gradientTransform="matrix(-184.39, 0, 0, -184.39, 328.84, 225.08)" gradientUnits="userSpaceOnUse"><stop offset="0" stop-color="#3e863d"/><stop offset="0.3" stop-color="#3e863d"/><stop offset="0.5" stop-color="#55934f"/><stop offset="0.8" stop-color="#5aad45"/><stop offset="1" stop-color="#5aad45"/></linearGradient><clipPath id="clip-path-2" transform="translate(-67.5 -138.23)"><path class="cls-1" d="M164.11,256.27a4.19,4.19,0,0,0,1.24,1.09l29.82,17.22,5,2.86a4.22,4.22,0,0,0,2.42.55,4.72,4.72,0,0,0,.82-.15l36.67-67.13a4.37,4.37,0,0,0-1-.78l-22.76-13.14-12-6.93a5,5,0,0,0-1.09-.43Z"/></clipPath><linearGradient id="linear-gradient-2" x1="0.05" y1="0.13" x2="0.67" y2="0.13" gradientTransform="matrix(183.78, 0, 0, 183.78, 135.98, 209.29)" gradientUnits="userSpaceOnUse"><stop offset="0" stop-color="#3e863d"/><stop offset="0.57" stop-color="#3e863d"/><stop offset="0.72" stop-color="#619857"/><stop offset="1" stop-color="#76ac64"/></linearGradient><clipPath id="clip-path-3" transform="translate(-67.5 -138.23)"><path class="cls-1" d="M201.79,189.33a4.3,4.3,0,0,0-1.68.54l-34.66,20L202.83,278a4.21,4.21,0,0,0,1.49-.52l34.76-20.08a4.17,4.17,0,0,0,2-2.87L203,189.4a4.8,4.8,0,0,0-.85-.08h-.35"/></clipPath><linearGradient id="linear-gradient-3" x1="0.13" y1="0.28" x2="0.75" y2="0.28" gradientTransform="translate(82.05 60.74) scale(122.24)" gradientUnits="userSpaceOnUse"><stop offset="0" stop-color="#6bbf47"/><stop offset="0.16" stop-color="#6bbf47"/><stop offset="0.38" stop-color="#79b461"/><stop offset="0.47" stop-color="#75ac64"/><stop offset="0.7" stop-color="#659e5a"/><stop offset="0.9" stop-color="#3e863d"/><stop offset="1" stop-color="#3e863d"/></linearGradient></defs><title>Node-JS-01 [Converted]</title><path class="cls-2" d="M247.91,361.77a6.89,6.89,0,0,1-3.46-.92l-11-6.52c-1.64-.92-.84-1.24-.3-1.43a22.15,22.15,0,0,0,5-2.27.83.83,0,0,1,.82.06l8.45,5a1.14,1.14,0,0,0,1,0l33-19a1,1,0,0,0,.5-.89v-38a1.07,1.07,0,0,0-.51-.91l-33-19a1,1,0,0,0-1,0l-32.95,19a1.06,1.06,0,0,0-.52.9v38a1,1,0,0,0,.51.88l9,5.22c4.9,2.45,7.9-.44,7.9-3.34V301a.93.93,0,0,1,1-.94h4.18a.94.94,0,0,1,1,.94v37.56c0,6.54-3.57,10.29-9.76,10.29-1.91,0-3.41,0-7.6-2.06l-8.65-5a7,7,0,0,1-3.46-6v-38a6.92,6.92,0,0,1,3.46-6l33-19a7.23,7.23,0,0,1,6.93,0l32.95,19.05a6.94,6.94,0,0,1,3.46,6v38a7,7,0,0,1-3.46,6l-32.95,19a7,7,0,0,1-3.48.92" transform="translate(-67.5 -138.23)"/><path class="cls-2" d="M258.09,335.56c-14.43,0-17.45-6.62-17.45-12.17a1,1,0,0,1,1-.95h4.25a1,1,0,0,1,.94.81c.65,4.33,2.56,6.52,11.28,6.52,6.95,0,9.9-1.57,9.9-5.25,0-2.12-.84-3.7-11.63-4.75-9-.89-14.6-2.88-14.6-10.1,0-6.65,5.61-10.61,15-10.61,10.56,0,15.79,3.66,16.45,11.53a1,1,0,0,1-.26.74,1,1,0,0,1-.7.3H268a.93.93,0,0,1-.92-.74c-1-4.56-3.53-6-10.3-6-7.58,0-8.47,2.64-8.47,4.62,0,2.4,1,3.1,11.27,4.45s15,3.24,15,10.37-6,11.29-16.44,11.29m40.15-40.34h1.1a1,1,0,0,0,1.09-1c0-1-.67-1-1-1H298.2Zm-1.35-3.12h2.45c.85,0,2.5,0,2.5,1.88a1.63,1.63,0,0,1-1.35,1.75c1,.07,1.05.71,1.18,1.62a7,7,0,0,0,.37,1.88h-1.51c0-.33-.27-2.14-.27-2.24-.1-.41-.24-.61-.74-.61h-1.25v2.86h-1.38Zm-2.94,3.55a5.33,5.33,0,1,0,5.3-5.31,5.33,5.33,0,0,0-5.3,5.31m11.68,0a6.35,6.35,0,1,1-6.35-6.36,6.37,6.37,0,0,1,6.35,6.36" transform="translate(-67.5 -138.23)"/><path class="cls-3" d="M145.83,212.94a4.23,4.23,0,0,0-2.11-3.67l-34.95-20.1a4.11,4.11,0,0,0-1.92-.56h-.36a4.18,4.18,0,0,0-1.93.56l-34.95,20.1a4.26,4.26,0,0,0-2.11,3.67l.08,54.16a2.07,2.07,0,0,0,1,1.83,2,2,0,0,0,2.1,0L91.5,257a4.26,4.26,0,0,0,2.11-3.66V228.06a4.2,4.2,0,0,1,2.11-3.65l8.84-5.09a4.21,4.21,0,0,1,2.11-.57,4.11,4.11,0,0,1,2.1.56l8.84,5.1a4.21,4.21,0,0,1,2.12,3.65v25.3a4.3,4.3,0,0,0,2.11,3.67l20.77,11.89a2.1,2.1,0,0,0,2.11,0,2.14,2.14,0,0,0,1-1.83Zm164.91,28.2a1,1,0,0,1-.52.91l-12,6.92a1,1,0,0,1-1,0l-12-6.92a1,1,0,0,1-.53-.91V227.28a1.07,1.07,0,0,1,.52-.92l12-6.93a1.08,1.08,0,0,1,1.07,0l12,6.93a1.06,1.06,0,0,1,.53.92ZM314,138.49a2.13,2.13,0,0,0-2.1,0,2.1,2.1,0,0,0-1,1.82V194a1.49,1.49,0,0,1-.74,1.28,1.45,1.45,0,0,1-1.48,0l-8.75-5a4.19,4.19,0,0,0-4.22,0l-35,20.18a4.19,4.19,0,0,0-2.11,3.64V254.4a4.21,4.21,0,0,0,2.11,3.65l35,20.19a4.24,4.24,0,0,0,4.22,0l35-20.2a4.23,4.23,0,0,0,2.11-3.65V153.79a4.23,4.23,0,0,0-2.17-3.69ZM430.4,226.92a4.23,4.23,0,0,0,2.1-3.65v-9.78a4.24,4.24,0,0,0-2.1-3.66l-34.74-20.16a4.21,4.21,0,0,0-4.23,0l-34.95,20.17a4.22,4.22,0,0,0-2.11,3.66v40.34a4.24,4.24,0,0,0,2.12,3.68l34.73,19.79a4.21,4.21,0,0,0,4.14,0l21-11.68a2.11,2.11,0,0,0,0-3.67l-35.17-20.18a2.1,2.1,0,0,1-1.06-1.83V227.33a2.08,2.08,0,0,1,1-1.83l11-6.31a2.08,2.08,0,0,1,2.1,0l10.95,6.31a2.1,2.1,0,0,1,1.05,1.82v10a2.12,2.12,0,0,0,3.17,1.83Z" transform="translate(-67.5 -138.23)"/><path class="cls-2" d="M393,225a.79.79,0,0,1,.81,0l6.71,3.87a.8.8,0,0,1,.4.7v7.75a.81.81,0,0,1-.4.7l-6.71,3.87a.83.83,0,0,1-.81,0l-6.7-3.87a.8.8,0,0,1-.41-.7V229.6a.8.8,0,0,1,.4-.7Z" transform="translate(-67.5 -138.23)"/><g class="cls-4"><rect class="cls-5" x="145.16" y="179.21" width="114.11" height="109.09" transform="translate(-164.18 174.21) rotate(-63.89)"/></g><g class="cls-6"><rect class="cls-7" x="145.22" y="175.55" width="113.73" height="116.39" transform="translate(-166.85 27.6) rotate(-36.46)"/></g><g class="cls-8"><rect class="cls-9" x="97.95" y="51.09" width="75.65" height="88.64"/></g></svg>