<svg id="Layer_1" data-name="Layer 1" xmlns="http://www.w3.org/2000/svg" viewBox="0 0 323.92 365"><defs><style>.cls-1{fill:#539e43;}</style></defs><title>Node-JS-02 [Converted]</title><path class="cls-1" d="M250,432.5a29.36,29.36,0,0,1-14.08-3.69l-44.6-26.49c-6.71-3.69-3.35-5-1.34-5.7,9.05-3,10.73-3.69,20.12-9.05a3.08,3.08,0,0,1,3.35.33l34.2,20.46a4.28,4.28,0,0,0,4,0L385.47,330.9a3.86,3.86,0,0,0,2-3.69V172.62a3.85,3.85,0,0,0-2-3.68L251.68,91.81a4.28,4.28,0,0,0-4,0L113.86,168.94a4.19,4.19,0,0,0-2,3.68V327.21a4.21,4.21,0,0,0,2,3.69L150.41,352c19.78,10.06,32.19-1.67,32.19-13.41V186a4.08,4.08,0,0,1,4-4h17.11a4.08,4.08,0,0,1,4,4V338.61c0,26.49-14.42,41.91-39.57,41.91-7.71,0-13.75,0-30.85-8.38L102.12,352A28.3,28.3,0,0,1,88,327.54V173a28.3,28.3,0,0,1,14.08-24.48L235.92,71a29.94,29.94,0,0,1,28.16,0l133.8,77.46A28.3,28.3,0,0,1,412,173V327.54A28.3,28.3,0,0,1,397.88,352l-133.8,77.46A34.36,34.36,0,0,1,250,432.5Zm41.24-106.3c-58.68,0-70.75-26.82-70.75-49.63a4.08,4.08,0,0,1,4-4H242a3.45,3.45,0,0,1,3.69,3.35c2.68,17.78,10.4,26.49,45.94,26.49,28.17,0,40.24-6.37,40.24-21.46,0-8.71-3.35-15.09-47.28-19.45-36.55-3.68-59.35-11.73-59.35-40.9,0-27.17,22.8-43.26,61-43.26,42.92,0,64,14.75,66.72,46.94a5.39,5.39,0,0,1-1,3,4.15,4.15,0,0,1-2.68,1.34H331.82a3.93,3.93,0,0,1-3.69-3c-4-18.45-14.42-24.48-41.91-24.48-30.85,0-34.54,10.73-34.54,18.77,0,9.73,4.36,12.75,45.94,18.11,41.24,5.37,60.69,13.08,60.69,41.92C358,309.44,333.83,326.2,291.24,326.2Z" transform="translate(-88.04 -67.5)"/></svg>