<svg id="Layer_1" data-name="Layer 1" xmlns="http://www.w3.org/2000/svg" viewBox="0 0 354.03 365"><defs><style>.cls-1{fill:#336791;}.cls-2{fill:#fff;}</style></defs><title>PostgreSQL-01 [Converted]</title><path d="M426.08,286.14c-2.13-6.44-7.7-10.93-14.91-12a34.09,34.09,0,0,0-11.9.66,106.47,106.47,0,0,1-18.33,2.41c16.41-27.7,29.75-59.3,37.43-89,12.42-48.08,5.78-70-2-79.9C395.87,82,365.92,67.94,329.79,67.51a153.43,153.43,0,0,0-45,6.31,167.75,167.75,0,0,0-26.33-2.41c-17.38-.28-32.73,3.51-45.85,11.29a210.38,210.38,0,0,0-32.39-8.12c-31.67-5.2-57.19-1.15-75.85,12-22.61,16-33.09,43.7-31.15,82.45.62,12.3,7.5,49.73,18.33,85.23,6.23,20.4,12.87,37.34,19.74,50.36,9.74,18.46,20.16,29.33,31.86,33.23,6.56,2.19,18.48,3.72,31-6.72a27.37,27.37,0,0,0,6.52,5.61A43.47,43.47,0,0,0,193,342c15.72,3.94,30.44,3,43-2.56.08,2.24.14,4.37.19,6.22.08,3,.16,5.92.27,8.66.75,18.54,2,33,5.74,43,.21.56.49,1.4.78,2.3,1.86,5.71,5,15.26,12.91,22.75,8.22,7.75,18.15,10.13,27.25,10.13a61.15,61.15,0,0,0,12.74-1.42c13.61-2.91,29.07-7.36,40.25-23.28,10.58-15.06,15.72-37.73,16.65-73.46.12-1,.23-2,.34-2.9.07-.62.14-1.25.22-1.88l2.49.21.64.05c13.87.63,30.82-2.31,41.23-7.15,8.23-3.82,34.6-17.73,28.39-36.53" transform="translate(-72.98 -67.5)"/><path class="cls-1" d="M402.37,289.8c-41.23,8.5-44.06-5.46-44.06-5.46,43.53-64.59,61.73-146.57,46-166.64C361.49,63,287.33,88.85,286.1,89.52l-.4.07a147.4,147.4,0,0,0-27.51-2.86c-18.65-.31-32.8,4.89-43.54,13,0,0-132.29-54.5-126.14,68.54,1.31,26.18,37.52,198.06,80.71,146.15,15.78-19,31-35,31-35a40,40,0,0,0,26.15,6.68l.73-.63a29.27,29.27,0,0,0,.3,7.39c-11.13,12.43-7.86,14.62-30.1,19.19-22.5,4.64-9.28,12.9-.65,15.06,10.47,2.61,34.67,6.32,51-16.58l-.65,2.61c4.36,3.5,7.42,22.72,6.91,40.14s-.86,29.39,2.58,38.73,6.86,30.36,36.09,24.1c24.43-5.24,37.1-18.8,38.86-41.44,1.25-16.08,4.07-13.71,4.25-28.09l2.27-6.81c2.62-21.81.42-28.85,15.47-25.57l3.66.32c11.08.5,25.58-1.78,34.08-5.74,18.33-8.5,29.2-22.7,11.13-19h0" transform="translate(-72.98 -67.5)"/><path class="cls-2" d="M222.39,180c-3.71-.52-7.08,0-8.78,1.25a3.2,3.2,0,0,0-1.33,2.14c-.22,1.54.86,3.23,1.52,4.1a11.42,11.42,0,0,0,7.29,4.55,9.17,9.17,0,0,0,1.16.08c4.5,0,8.59-3.5,8.95-6.09.45-3.24-4.25-5.4-8.81-6" transform="translate(-72.98 -67.5)"/><path class="cls-2" d="M345.47,180.11h0c-.35-2.54-4.87-3.26-9.16-2.66s-8.43,2.52-8.08,5.07c.28,2,3.85,5.35,8.08,5.35a8,8,0,0,0,1.08-.07,10.34,10.34,0,0,0,5.87-3.22c1.5-1.57,2.37-3.33,2.21-4.47" transform="translate(-72.98 -67.5)"/><path class="cls-2" d="M416.09,288.83c-1.57-4.75-6.63-6.28-15-4.55-25,5.16-33.9,1.59-36.83-.57,19.4-29.56,35.36-65.29,44-98.62,4.08-15.79,6.33-30.45,6.51-42.4.21-13.12-2-22.76-6.63-28.65-18.58-23.74-45.85-36.47-78.86-36.82-22.69-.26-41.86,5.55-45.58,7.18A113.25,113.25,0,0,0,258,81.11c-17-.28-31.75,3.8-44,12.11a195.8,195.8,0,0,0-35.71-9.36C149.38,79.2,126.39,82.73,110,94.35,90.4,108.22,81.37,133,83.12,168.05c.59,11.78,7.3,48,17.9,82.75,14,45.7,29.11,71.57,45.06,76.89a20.27,20.27,0,0,0,6.4,1.06c5.82,0,13-2.62,20.38-11.55,12.33-14.83,23.84-27.26,28.08-31.78a45.08,45.08,0,0,0,20.21,5.43c0,.19,0,.37,0,.56-1.42,1.67-2.58,3.14-3.56,4.4-4.89,6.19-5.9,7.48-21.62,10.72-4.47.92-16.34,3.37-16.52,11.69-.19,9.1,14,12.92,15.66,13.32a66.78,66.78,0,0,0,16.28,2.11c12.62,0,23.72-4.15,32.6-12.17-.28,32.42,1.07,64.36,5,74.1,3.18,8,11,27.44,35.57,27.44a56.94,56.94,0,0,0,12-1.36c25.67-5.51,36.82-16.85,41.13-41.87,2.31-13.37,6.27-45.3,8.14-62.42a50.58,50.58,0,0,0,14.46,1.78c11.41,0,24.58-2.42,32.84-6.25C402.38,308.59,419.13,298,416.09,288.83ZM355,173.11a104.29,104.29,0,0,1-1.52,14.43,133.08,133.08,0,0,0-1.82,17A127.53,127.53,0,0,0,353,223.65c1.54,12.79,3.11,25.94-3,38.93a50.56,50.56,0,0,1-2.7-5.56c-.76-1.84-2.41-4.79-4.69-8.88-8.87-15.91-29.64-53.16-19-68.36C326.73,175.25,334.77,170.6,355,173.11ZM330.49,87.45c29.57.66,53,11.72,69.53,32.89,12.7,16.23-1.28,90.1-41.78,153.83L357,272.62l-.51-.64c10.46-17.28,8.42-34.38,6.59-49.54a120.08,120.08,0,0,1-1.27-17.62,125.24,125.24,0,0,1,1.71-15.72,99.09,99.09,0,0,0,1.59-19.46,7.91,7.91,0,0,0,.17-2.74c-.66-7-8.64-27.93-24.92-46.87a112.19,112.19,0,0,0-39.61-29.78A133.62,133.62,0,0,1,330.49,87.45ZM165,310.67c-8.18,9.83-13.83,7.95-15.69,7.33-12.1-4-26.14-29.62-38.52-70.18-10.71-35.1-17-70.39-17.47-80.29-1.56-31.29,6-53.11,22.55-64.83,26.9-19.07,71.13-7.66,88.9-1.87-.26.26-.53.49-.78.75-29.16,29.45-28.47,79.76-28.4,82.84,0,1.19.1,2.87.24,5.18.5,8.46,1.43,24.21-1.06,42.05a53.18,53.18,0,0,0,14,44.51q1.75,1.81,3.63,3.42C187.42,284.93,176.56,296.76,165,310.67Zm31.16-41.58a43,43,0,0,1-11.27-36c2.63-18.84,1.66-35.25,1.14-44.07-.08-1.23-.14-2.31-.18-3.17,4.26-3.77,24-14.35,38.08-11.12,6.43,1.47,10.34,5.84,12,13.37,8.42,39,1.11,55.19-4.76,68.24-1.21,2.69-2.35,5.23-3.33,7.86l-.76,2a133.23,133.23,0,0,0-4.8,14.45A36.38,36.38,0,0,1,196.16,269.09Zm1.48,52.54a22.55,22.55,0,0,1-6.82-2.93,33.06,33.06,0,0,1,7.26-2.16c18.49-3.81,21.35-6.49,27.58-14.41,1.43-1.82,3.05-3.87,5.3-6.38h0c3.34-3.75,4.87-3.11,7.64-2,2.25.93,4.44,3.74,5.33,6.84.42,1.47.89,4.25-.66,6.41C230.25,325.28,211.27,325,197.64,321.63Zm96.76,90c-22.62,4.85-30.63-6.69-35.91-19.89-3.4-8.51-5.08-46.92-3.89-89.34a4.85,4.85,0,0,0-.22-1.62,22,22,0,0,0-.63-3c-1.77-6.17-6.07-11.33-11.24-13.47-2-.85-5.81-2.41-10.34-1.25a126.72,126.72,0,0,1,4.45-13.33l.77-2c.85-2.3,1.93-4.69,3.06-7.22,6.15-13.65,14.57-32.35,5.43-74.59-3.42-15.82-14.84-23.55-32.16-21.76-10.39,1.08-19.89,5.27-24.63,7.67-1,.52-2,1-2.82,1.5,1.32-15.94,6.32-45.74,25-64.59C223.05,96.87,238.72,91,257.82,91.32c37.62.62,61.75,19.93,75.36,36,11.73,13.86,18.09,27.83,20.62,35.36-19.07-1.94-32,1.82-38.61,11.22-14.3,20.45,7.83,60.13,18.46,79.2,2,3.49,3.63,6.51,4.16,7.8A71.1,71.1,0,0,0,349,279c1,1.26,2,2.47,2.72,3.53-5.78,1.67-16.15,5.51-15.2,24.74-.77,9.65-6.19,54.82-8.94,70.78C324,399.14,316.21,407,294.4,411.67Zm94.41-108c-5.91,2.74-15.79,4.8-25.18,5.24-10.37.48-15.65-1.16-16.89-2.18-.58-12,3.88-13.23,8.6-14.56.74-.2,1.46-.41,2.16-.65.44.35.91.7,1.43,1,8.34,5.5,23.2,6.09,44.19,1.76l.23-.05A56.51,56.51,0,0,1,388.81,303.63Z" transform="translate(-72.98 -67.5)"/></svg>