<svg id="Layer_1" data-name="Layer 1" xmlns="http://www.w3.org/2000/svg" xmlns:xlink="http://www.w3.org/1999/xlink" viewBox="0 0 370 107.39"><defs><style>.cls-1{mask:url(#mask);}.cls-2{mix-blend-mode:multiply;fill:url(#radial-gradient);}.cls-3{fill:#646464;}.cls-4{fill:url(#linear-gradient);}.cls-5{fill:url(#linear-gradient-2);}.cls-6{mask:url(#mask-2);}.cls-7{opacity:0.44;isolation:isolate;fill:url(#radial-gradient-2);}.cls-8{filter:url(#luminosity-noclip-2);}.cls-9{filter:url(#luminosity-noclip);}</style><filter id="luminosity-noclip" x="80.5" y="-8442" width="56" height="32766" filterUnits="userSpaceOnUse" color-interpolation-filters="sRGB"><feFlood flood-color="#fff" result="bg"/><feBlend in="SourceGraphic" in2="bg"/></filter><mask id="mask" x="80.5" y="-8442" width="56" height="32766" maskUnits="userSpaceOnUse"><g class="cls-9"/></mask><radialGradient id="radial-gradient" cx="-616.04" cy="324.76" r="22.63" gradientTransform="matrix(0, -0.24, -1.05, 0, 451.02, 150.48)" gradientUnits="userSpaceOnUse"><stop offset="0" stop-color="#7f7f7f"/><stop offset="1"/></radialGradient><linearGradient id="linear-gradient" x1="128.29" y1="138.71" x2="213.25" y2="65.61" gradientTransform="matrix(0.56, 0, 0, -0.57, -9.29, 280.03)" gradientUnits="userSpaceOnUse"><stop offset="0" stop-color="#5a9fd4"/><stop offset="1" stop-color="#306998"/></linearGradient><linearGradient id="linear-gradient-2" x1="246.09" y1="21.38" x2="215.76" y2="64.3" gradientTransform="matrix(0.56, 0, 0, -0.57, -9.29, 280.03)" gradientUnits="userSpaceOnUse"><stop offset="0" stop-color="#ffd43b"/><stop offset="1" stop-color="#ffe873"/></linearGradient><filter id="luminosity-noclip-2" x="80.5" y="292.83" width="56" height="10.86" filterUnits="userSpaceOnUse" color-interpolation-filters="sRGB"><feFlood flood-color="#fff" result="bg"/><feBlend in="SourceGraphic" in2="bg"/></filter><mask id="mask-2" x="15.5" y="96.53" width="56" height="10.86" maskUnits="userSpaceOnUse"><g class="cls-8"><g transform="translate(-65 -196.31)"><g class="cls-1"><path id="path1894" class="cls-2" d="M136.5,298.26c0,3-12.54,5.43-28,5.43s-28-2.43-28-5.43,12.53-5.43,28-5.43S136.5,295.27,136.5,298.26Z"/></g></g></g></mask><radialGradient id="radial-gradient-2" cx="-616.04" cy="324.76" r="22.63" gradientTransform="matrix(0, -0.24, -1.05, 0, 451.02, 150.48)" gradientUnits="userSpaceOnUse"><stop offset="0" stop-color="#b8b8b8"/><stop offset="1" stop-color="#7f7f7f"/></radialGradient></defs><title>Python-01 [Converted]</title><g id="g2303"><path id="path46" class="cls-3" d="M204.51,242q0-17-9.71-17.49a18.23,18.23,0,0,0-7.53,1.24,11,11,0,0,0-4,2.09V255q6.21,3.89,11,3.61Q204.5,257.89,204.51,242Zm8,.48q0,8.64-4.07,14.35a15,15,0,0,1-12.6,6.65q-6.07.19-12.51-3.8v24.62l-6.94-2.48V227.2a15.34,15.34,0,0,1,4.38-3.62,30,30,0,0,1,15.06-3.7l.1.09a13.84,13.84,0,0,1,12.49,6.65C211.12,230.75,212.49,236,212.49,242.5Z" transform="translate(-65 -196.31)"/><path id="path48" class="cls-3" d="M254.92,258.65q0,11.6-2.32,16.07t-8.9,7.12a34,34,0,0,1-11.5,2.29l-1.15-4.38A55.3,55.3,0,0,0,239.9,278q5-1.71,6.94-5.22,1.53-2.86,1.52-10.93v-1.81a35.67,35.67,0,0,1-14.93,3.23,13.7,13.7,0,0,1-9-3.23,11,11,0,0,1-4.37-8.93v-28.9l6.94-2.37V249a8.83,8.83,0,0,0,3,7.18,11.34,11.34,0,0,0,7.78,2.42q4.77-.1,10.22-3.71V220.92h6.94Z" transform="translate(-65 -196.31)"/><path id="path50" class="cls-3" d="M282,263.12c-.83.07-1.59.1-2.29.1q-5.88,0-9.17-2.81a9.72,9.72,0,0,1-3.27-7.77V225.29h-4.76v-4.37h4.76V209.33l6.93-2.47v14.06H282v4.37h-7.8v27.16c0,2.6.7,4.45,2.1,5.53a10.67,10.67,0,0,0,5.7,1.52Z" transform="translate(-65 -196.31)"/><path id="path52" class="cls-3" d="M324.06,262.55h-6.95v-26.8a12.63,12.63,0,0,0-1.9-7,7,7,0,0,0-6.12-3.33q-4.77,0-11.94,5v32.12h-6.94V198.49l6.94-2.18v29.17a24.18,24.18,0,0,1,14.55-4.84,11.59,11.59,0,0,1,8.93,3.7,13.05,13.05,0,0,1,3.43,9.22v29Z" transform="translate(-65 -196.31)"/><path id="path54" class="cls-3" d="M361,240.93a21.32,21.32,0,0,0-2.48-10.81,10.37,10.37,0,0,0-9.12-5.49Q337.95,225.29,338,241a27,27,0,0,0,2.38,12q3.06,6.13,9.16,6Q361,258.94,361,240.93Zm7.6,0q0,9.3-4.76,15.49-5.22,6.93-14.44,6.94c-6.1,0-10.84-2.32-14.27-6.94q-4.65-6.18-4.65-15.49a22.11,22.11,0,0,1,5-14.74,17.35,17.35,0,0,1,14-6.36,17.62,17.62,0,0,1,14.07,6.36A22.12,22.12,0,0,1,368.56,241Z" transform="translate(-65 -196.31)"/><path id="path56" class="cls-3" d="M408.36,262.55h-6.94V234.23a9.45,9.45,0,0,0-2.81-7.27,10.15,10.15,0,0,0-7.46-2.52,16.65,16.65,0,0,0-9.41,3.23v34.88h-6.95V226.81a31.69,31.69,0,0,1,19.4-6.93,22.37,22.37,0,0,1,4.66.47,13.35,13.35,0,0,1,6.65,3.52,9.3,9.3,0,0,1,2.86,6.84Z" transform="translate(-65 -196.31)"/><path id="path1948" class="cls-4" d="M107.8,198.75a60.13,60.13,0,0,0-10,.85c-8.84,1.57-10.44,4.83-10.44,10.86v8h20.89v2.65H79.52c-6.07,0-11.39,3.65-13,10.6-1.92,7.95-2,12.92,0,21.23,1.49,6.19,5,10.59,11.11,10.59h7.18V254a13.28,13.28,0,0,1,13-13h20.87a10.53,10.53,0,0,0,10.45-10.62v-19.9c0-5.66-4.78-9.91-10.45-10.86A65.56,65.56,0,0,0,107.8,198.75Zm-11.3,6.41a4,4,0,1,1-3.92,4A4,4,0,0,1,96.5,205.16Z" transform="translate(-65 -196.31)"/><path id="path1950" class="cls-5" d="M131.74,221.08v9.28a13.41,13.41,0,0,1-13.06,13.25H97.81a10.66,10.66,0,0,0-10.44,10.62v19.89c0,5.66,4.92,9,10.44,10.62a35,35,0,0,0,20.87,0c5.26-1.52,10.45-4.59,10.45-10.62v-8H108.26V263.5h31.32c6.07,0,8.33-4.23,10.44-10.59,2.19-6.54,2.09-12.84,0-21.23-1.5-6.05-4.36-10.6-10.44-10.6ZM120,271.47a4,4,0,1,1-3.92,4A3.94,3.94,0,0,1,120,271.47Z" transform="translate(-65 -196.31)"/><path id="text3004" class="cls-3" d="M421.88,214.73h1.22V207.1H426v-.91h-7v.91h2.88v7.63m5.18,0h1v-7l2.26,7h1.15l2.36-6.94v6.94H435v-8.54h-1.5l-2.57,7.32-2.19-7.32h-1.68v8.54" transform="translate(-65 -196.31)"/><g class="cls-6"><path id="path1894-2" data-name="path1894" class="cls-7" d="M136.5,298.26c0,3-12.54,5.43-28,5.43s-28-2.43-28-5.43,12.53-5.43,28-5.43S136.5,295.27,136.5,298.26Z" transform="translate(-65 -196.31)"/></g></g></svg>