<svg id="Layer_1" data-name="Layer 1" xmlns="http://www.w3.org/2000/svg" viewBox="0 0 365 324.75"><defs><style>.cls-1{fill:#00d8ff;}</style></defs><title>React-01 [Converted]</title><path class="cls-1" d="M367.6,192.88c-3.78-1.3-7.71-2.53-11.75-3.7q1-4.06,1.82-8c8.89-43.18,3.08-78-16.78-89.41-19-11-50.18.47-81.63,27.84-3,2.63-6.06,5.42-9.09,8.34q-3-2.91-6-5.59c-33-29.26-66-41.6-85.84-30.11-19,11-24.65,43.71-16.65,84.62q1.17,5.94,2.7,12.1c-4.67,1.32-9.19,2.74-13.51,4.24C92.18,206.68,67.5,227.79,67.5,249.69c0,22.62,26.49,45.31,66.74,59.07,3.18,1.08,6.48,2.11,9.87,3.09-1.1,4.43-2.06,8.78-2.86,13-7.64,40.21-1.68,72.14,17.3,83.08,19.59,11.3,52.48-.32,84.51-28.31,2.53-2.21,5.07-4.56,7.61-7q5,4.77,9.87,9c31,26.7,61.66,37.48,80.61,26.5,19.58-11.33,25.94-45.63,17.68-87.35q-.94-4.78-2.19-9.76c2.31-.68,4.58-1.39,6.79-2.12,41.85-13.86,69.07-36.27,69.07-59.2C432.5,227.71,407,206.45,367.6,192.88Zm-9.07,101.21c-2,.66-4,1.3-6.13,1.92a365.68,365.68,0,0,0-18.49-46.24,366.19,366.19,0,0,0,17.77-45.57c3.73,1.08,7.36,2.22,10.85,3.43,33.77,11.62,54.38,28.82,54.38,42.06C416.91,263.8,394.66,282.12,358.53,294.09Zm-15,29.71c3.65,18.45,4.17,35.13,1.75,48.17-2.17,11.72-6.54,19.53-12,22.66-11.5,6.66-36.1-2-62.63-24.83-3-2.61-6.1-5.41-9.18-8.37a364.72,364.72,0,0,0,30.6-38.84A365.49,365.49,0,0,0,341.56,315C342.31,318,343,320.92,343.54,323.8Zm-151.6,69.68c-11.24,4-20.19,4.08-25.6,1-11.52-6.64-16.3-32.27-9.77-66.66q1.11-5.91,2.66-12.11a367.06,367.06,0,0,0,49.19,7.11,377.52,377.52,0,0,0,31.33,38.71q-3.5,3.38-6.95,6.41C218.63,380.28,204.44,389.06,191.94,393.48ZM139.29,294c-17.8-6.08-32.5-14-42.57-22.61-9.06-7.75-13.63-15.45-13.63-21.7,0-13.29,19.82-30.24,52.87-41.76q6-2.1,12.56-4a374.25,374.25,0,0,0,17.79,46.1,378,378,0,0,0-18,46.76C145.19,295.93,142.18,295,139.29,294Zm17.65-120.13c-6.86-35.06-2.31-61.5,9.16-68.14,12.21-7.07,39.21,3,67.67,28.28q2.73,2.43,5.47,5.06a374,374,0,0,0-31.09,38.47,383.14,383.14,0,0,0-48.71,7.57Q158,179.38,156.94,173.87Zm157.44,38.88q-5.42-9.36-11.1-18.26c11.65,1.47,22.8,3.43,33.28,5.82a330.74,330.74,0,0,1-11.68,31.43Q319.91,222.3,314.38,212.75Zm-64.21-62.54a330,330,0,0,1,21.48,25.93q-10.71-.51-21.65-.51t-21.49.5C235.6,166.78,242.87,158.09,250.17,150.21Zm-64.61,62.64q-5.42,9.39-10.31,18.88c-4.54-10.77-8.42-21.36-11.59-31.58,10.41-2.34,21.51-4.24,33.09-5.68q-5.76,9-11.19,18.38ZM197.08,306a329.48,329.48,0,0,1-33.64-5.41c3.22-10.4,7.19-21.22,11.83-32.22q4.9,9.47,10.35,18.89h0Q191.17,296.86,197.08,306Zm53.53,44.24c-7.39-8-14.77-16.79-22-26.28q10.49.42,21.36.42,11.16,0,22-.49A329.45,329.45,0,0,1,250.61,350.27ZM325,267.84A331.76,331.76,0,0,1,337.29,300a331.46,331.46,0,0,1-34.05,5.8q5.68-9,11.2-18.57T325,267.84Zm-24.09,11.55c-5.71,9.89-11.57,19.34-17.51,28.25-10.84.78-22,1.17-33.43,1.17s-22.41-.35-33.05-1c-6.18-9-12.17-18.5-17.84-28.29h0c-5.65-9.77-10.85-19.62-15.57-29.41,4.71-9.82,9.9-19.68,15.53-29.43h0c5.63-9.77,11.56-19.2,17.69-28.17,10.86-.82,22-1.25,33.24-1.25h0c11.3,0,22.45.43,33.3,1.26,6,8.91,11.93,18.3,17.58,28.08s11,19.68,15.74,29.29C311.88,259.62,306.63,269.51,300.94,279.39ZM333.1,105.27c12.22,7,17,35.47,9.3,72.75q-.73,3.57-1.64,7.26A371.85,371.85,0,0,0,292,177.57a365.76,365.76,0,0,0-30.85-38.51q4.2-4,8.39-7.7C296.44,107.91,321.63,98.65,333.1,105.27ZM250,217.1a32.6,32.6,0,1,1-32.59,32.59A32.59,32.59,0,0,1,250,217.1Z" transform="translate(-67.5 -87.63)"/></svg>