<svg id="Layer_1" data-name="Layer 1" xmlns="http://www.w3.org/2000/svg" viewBox="0 0 365 88.8"><defs><style>.cls-1{fill:#007acc;}</style></defs><title>Typescript-01 [Converted]</title><path class="cls-1" d="M113,213.68H94.06v58.66H86.32V213.68H67.5v-6.92H113Zm35.68,11.78-21.6,54.39c-3.81,9.7-9.24,14.55-16.16,14.55a18.36,18.36,0,0,1-4.85-.58v-6.7a13,13,0,0,0,4.38.81c3.82,0,6.59-2.31,8.55-6.81l3.69-8.89-18.24-46.77h8.31l12.71,36c.11.46.46,1.62.92,3.58h.23c.12-.69.46-1.85.92-3.47l13.28-36.14Zm12.24,40.07h-.24v28.29h-7.5V225.46h7.5v8.2h.24c3.69-6.23,9.12-9.35,16.16-9.35,6,0,10.74,2.08,14.09,6.23s5.08,9.82,5.08,16.86c0,7.85-2,14.09-5.77,18.82s-9,7-15.59,7C169,273.5,164.26,270.84,160.92,265.53Zm-.12-18.82v6.58a13.61,13.61,0,0,0,3.81,9.82,12.65,12.65,0,0,0,9.58,4,12.8,12.8,0,0,0,10.74-5.2q3.81-5.19,3.81-14.55c0-5.19-1.15-9.35-3.58-12.24a11.8,11.8,0,0,0-9.81-4.39,13.31,13.31,0,0,0-10.51,4.51C162.07,238.28,160.8,242.09,160.8,246.71Zm81.41,4h-33q.18,7.8,4.16,12.12c2.65,2.89,6.35,4.28,11.08,4.28A22.91,22.91,0,0,0,239,262v7q-6.22,4.51-16.28,4.51c-6.58,0-11.78-2.08-15.59-6.35s-5.66-10.28-5.66-17.9c0-7.28,2.08-13.28,6.24-17.78A19.81,19.81,0,0,1,223,224.54c6.12,0,10.85,2,14.2,6s5.08,9.47,5.08,16.52Zm-7.74-6.35c0-4.39-1-7.74-3.12-10.16a10.65,10.65,0,0,0-8.54-3.58,12,12,0,0,0-9,3.81,17.78,17.78,0,0,0-4.62,9.93ZM245.9,270v-5.19a26.45,26.45,0,0,0,14.32,4.5c5.08,0,9-1,11.66-3.23a10.78,10.78,0,0,0,3.93-8.89,12.19,12.19,0,0,0-2.66-8.09c-1.73-2-5.66-4.73-11.55-8.19-6.69-3.93-10.85-7.16-12.58-9.7a16.21,16.21,0,0,1-2.66-9,15.35,15.35,0,0,1,5.43-11.78c3.58-3.23,8.43-4.85,14.43-4.85a36.92,36.92,0,0,1,11.67,2v4.74a29.72,29.72,0,0,0-12.36-2.66c-4.5,0-8,1.16-10.62,3.35a10.72,10.72,0,0,0-3.93,8.55,11.62,11.62,0,0,0,2.66,8c1.73,2,5.66,4.74,11.54,8.09,6.12,3.46,10.17,6.58,12.24,9.23a14.67,14.67,0,0,1,3,9.36,16,16,0,0,1-5.2,12.35c-3.46,3.24-8.43,4.74-14.78,4.74a35.15,35.15,0,0,1-7.85-1C249.6,271.54,247.4,271,245.9,270Zm73.56.23A23.87,23.87,0,0,1,307,273.5c-6.35,0-11.54-2.2-15.47-6.58s-5.89-10.05-5.89-17.21c0-7.39,2.2-13.51,6.58-18.24a22.14,22.14,0,0,1,17-7.16,25.09,25.09,0,0,1,10.39,2.19v4.74a20.48,20.48,0,0,0-11-3.12A16.91,16.91,0,0,0,295.21,234c-3.47,3.92-5.08,9.12-5.08,15.35s1.61,11,4.73,14.67a15.43,15.43,0,0,0,12.36,5.54,20.81,20.81,0,0,0,12.24-3.69Zm27.94-40.41a7.93,7.93,0,0,0-5-1.5c-3.69,0-6.81,2-9.23,5.77s-3.7,9.24-3.7,16.28v22.06h-4.16v-47h4.16v10.39h.23a16.75,16.75,0,0,1,5.08-8.31,12.11,12.11,0,0,1,8.09-3,11.31,11.31,0,0,1,4.61.81v4.5Zm6.7-16.17a3.32,3.32,0,0,1-2.43-1,3.43,3.43,0,0,1-1-2.54,3,3,0,0,1,1-2.43,3.7,3.7,0,0,1,2.43-.92,4.28,4.28,0,0,1,2.54.92,3,3,0,0,1,1,2.43,3.61,3.61,0,0,1-1,2.54A3.8,3.8,0,0,1,354.1,213.68ZM352,272.34V225.46h4.15v46.88ZM370.61,264h-.23v29.91h-4.16V225.46h4.16v9.7h.23a18.52,18.52,0,0,1,7.16-8A20,20,0,0,1,388,224.42c6,0,10.63,2.08,14,6.12s5,9.7,5,16.75c0,7.85-2,14.2-5.77,19a18.33,18.33,0,0,1-15.13,7.27C379.15,273.5,374,270.38,370.61,264Zm-.23-17.44v5.89a18,18,0,0,0,4.39,12.13,14.86,14.86,0,0,0,11.66,5.08,14,14,0,0,0,11.66-6.12c3-4.16,4.5-9.47,4.5-16.17,0-5.89-1.38-10.51-4.15-14a13.27,13.27,0,0,0-11-5.2c-5.43,0-9.7,1.85-12.7,5.55A19.36,19.36,0,0,0,370.38,246.59Zm62.12,25.06a14.35,14.35,0,0,1-6.12,1.5q-10.39,0-10.39-12.47V229.39h-8.43v-3.81H416V213.34l2.08-.69,2.07-.7v13.63H432.5v3.81H420.14v30.94c0,3.24.47,5.55,1.51,7.05s2.77,2.19,5.19,2.19a11.81,11.81,0,0,0,5.66-1.73Z" transform="translate(-67.5 -205.6)"/></svg>